<svg width="284" height="56" viewBox="0 0 284 56" fill="none" xmlns="http://www.w3.org/2000/svg">
<g clip-path="url(#clip0_305_1025)">
<path d="M90.9222 42L101.125 13.8H96.0826L87.9049 37.04H87.1113L79.211 13.8H74.0901L83.9751 42H90.9222Z" fill="white"/>
<path d="M114.351 27.4L126.22 13.8H120.345L110.42 25.28H109.269V13.8H104.506V42H109.269V29.92H110.46L120.941 42H127.213L114.351 27.4Z" fill="white"/>
<path d="M143.188 42V20.2H143.823L151.644 42H156.09L164.07 20.2H164.704V42H169.35V13.8H162.045L154.264 35.12H153.629L146.007 13.8H138.544V42H143.188Z" fill="white"/>
<path d="M184.307 36.1999H183.672L177.598 21.2H172.715L181.885 43.12L181.647 43.7599C181.051 45.4399 180.337 45.9999 178.828 45.9999H174.978L175.375 50.1999H178.511C182.322 50.1999 184.386 48.48 185.775 44.5999L194.232 21.2H189.587L184.307 36.1999Z" fill="white"/>
<path d="M208.592 31.4C210.696 30.84 212.244 29.12 212.244 26.76C212.244 23.28 208.949 20.8 204.383 20.8C200.294 20.8 196.841 22.72 195.57 26.68L199.779 27.4C200.612 25.76 202.24 24.72 204.225 24.72C206.13 24.72 207.678 25.68 207.678 27.24C207.678 28.64 206.408 29.56 203.947 29.56H201.367V33.56H203.947C207.043 33.56 207.996 34.6 207.996 35.92C207.996 37.52 206.567 38.48 203.947 38.48C201.565 38.48 200.176 37.68 199.262 35.84L195.055 36.56C196.047 40.04 199.421 42.4 203.986 42.4C209.227 42.4 212.561 39.68 212.561 36.28C212.561 33.68 210.696 32.04 208.592 31.4Z" fill="white"/>
<path d="M224.703 42C229.626 42 233.12 38.92 233.12 34.56C233.12 30.1999 229.665 27.1199 224.703 27.1199H221.488V21.2H216.923V42H224.703ZM240.146 42V21.2H235.581V42H240.146ZM221.488 31.12H224.703C226.966 31.12 228.554 32.52 228.554 34.56C228.554 36.5999 226.966 38 224.703 38H221.488V31.12Z" fill="white"/>
<path d="M264.117 42L254.63 31.2L263.324 21.2H257.885L250.977 29.28H249.866V21.2H245.3V42H249.866V33.72H250.977L258.123 42H264.117Z" fill="white"/>
<path d="M274.341 20.8C270.331 20.8 266.798 22.88 265.766 26.48L269.974 27.2C270.609 25.92 272.038 24.72 274.103 24.72C276.604 24.72 278.073 26.52 278.271 29.24H273.825C267.751 29.24 264.734 31.92 264.734 35.76C264.734 39.64 267.711 42.4 271.919 42.4C275.294 42.4 277.556 40.44 278.549 38.72L279.502 42H282.876V30.32C282.876 24.28 279.621 20.8 274.341 20.8ZM272.991 38.52C270.768 38.52 269.339 37.36 269.339 35.56C269.339 33.96 270.49 32.84 273.984 32.84H278.311C278.311 36.24 276.167 38.52 272.991 38.52Z" fill="white"/>
<path fill-rule="evenodd" clip-rule="evenodd" d="M4.15855 3.93648C0.36866 7.75522 0.255281 13.8317 0.251892 25.7597C10.8605 25.7596 17.4839 21.1705 23.2938 17.1451C27.8327 14.0004 31.8749 11.1997 36.9328 11.1997C44.461 11.1997 51.0342 16.563 54.5196 19.4069C55.0111 19.8079 55.4412 20.1589 55.804 20.4376C55.694 11.9333 55.1019 7.14028 51.9223 3.93648C48.0156 1.8692e-06 41.7277 1.30359e-06 29.152 1.95827e-07L26.9289 0C14.3532 3.16469e-06 8.06531 2.67029e-06 4.15855 3.93648ZM25.2949 55.9997C25.8275 56 26.372 56 26.9289 56H29.152C29.7088 56 30.2533 56 30.7858 55.9997H25.2949Z" fill="#0077FF"/>
<path fill-rule="evenodd" clip-rule="evenodd" d="M0.251937 25.7596C10.8605 25.7596 17.484 21.1705 23.2939 17.1451C27.8327 14.0004 31.875 11.1996 36.9328 11.1996C44.4611 11.1996 51.0342 16.563 54.5196 19.4069C55.0111 19.8079 55.4412 20.1589 55.804 20.4376C55.8291 22.3825 55.8291 24.5215 55.8291 26.88V29.12C55.8291 41.7913 55.8291 48.127 51.9224 52.0635C48.1885 55.8257 42.2798 55.9923 30.7855 55.9996H25.2954C13.8012 55.9923 7.89242 55.8257 4.1586 52.0635C0.251829 48.127 0.25183 41.7913 0.251831 29.12L0.251832 26.88C0.251832 26.5009 0.251832 26.1275 0.251937 25.7596Z" fill="#F45FFF"/>
<path d="M43.3245 28.546C43.3245 27.162 44.4519 26.04 45.8255 26.04C47.1991 26.04 48.3265 27.162 48.3265 28.546V38.654C48.3265 40.038 47.1991 41.16 45.8255 41.16C44.4519 41.16 43.3245 40.038 43.3245 38.654V28.546Z" fill="white"/>
<path d="M34.4324 22.1061C34.4324 20.7221 35.5598 19.6001 36.9334 19.6001C38.307 19.6001 39.4344 20.7221 39.4344 22.1061V45.0941C39.4344 46.4781 38.307 47.6001 36.9334 47.6001C35.5598 47.6001 34.4324 46.4781 34.4324 45.0941V22.1061Z" fill="white"/>
<path d="M25.54 28.546C25.54 27.162 26.6674 26.04 28.041 26.04C29.4146 26.04 30.542 27.162 30.542 28.546V38.654C30.542 40.038 29.4146 41.16 28.041 41.16C26.6674 41.16 25.54 40.038 25.54 38.654V28.546Z" fill="white"/>
<path d="M16.6465 32.1859C16.6465 30.8019 17.774 29.6799 19.1475 29.6799C20.5211 29.6799 21.6485 30.8019 21.6485 32.1859V35.0139C21.6485 36.398 20.5211 37.5199 19.1475 37.5199C17.774 37.5199 16.6465 36.398 16.6465 35.0139V32.1859Z" fill="white"/>
<path d="M7.75421 32.1859C7.75421 30.8019 8.88165 29.6799 10.2552 29.6799C11.6288 29.6799 12.7562 30.8019 12.7562 32.1859V35.0139C12.7562 36.398 11.6288 37.5199 10.2552 37.5199C8.88165 37.5199 7.75421 36.398 7.75421 35.0139V32.1859Z" fill="white"/>
</g>
<defs>
<clipPath id="clip0_305_1025">
<rect width="284" height="56" fill="white"/>
</clipPath>
</defs>
</svg>
