<svg width="286" height="64" viewBox="0 0 286 64" fill="none" xmlns="http://www.w3.org/2000/svg">
<g clip-path="url(#clip0_305_1043)">
<path fill-rule="evenodd" clip-rule="evenodd" d="M63.8232 19.9641C63.8232 19.2018 63.8232 18.4394 63.8197 17.6771C63.8161 17.0353 63.809 16.3936 63.7913 15.7518C63.7541 14.353 63.6707 12.9436 63.4225 11.5608C63.1708 10.1567 62.7577 8.85008 62.1089 7.57363C61.4706 6.32022 60.6374 5.17496 59.6428 4.18039C58.6483 3.18582 57.5012 2.35258 56.2478 1.71435C54.9731 1.06548 53.6665 0.654183 52.2642 0.400665C50.8814 0.152465 49.4702 0.0691413 48.0714 0.0319114C47.4296 0.0141828 46.7879 0.00709141 46.1461 0.00354571C45.3838 0 44.6214 0 43.8591 0H19.9646C19.2023 0 18.4399 0 17.6776 0.00354571C17.0358 0.00709141 16.3941 0.0141828 15.7523 0.0319114C14.3535 0.0709141 12.9423 0.152465 11.5595 0.402438C10.1554 0.654183 8.85057 1.06726 7.57589 1.71612C6.32248 2.35435 5.17545 3.18759 4.18088 4.18216C3.18631 5.17673 2.35306 6.32199 1.71484 7.5754C1.06597 8.85186 0.652898 10.1584 0.401153 11.5625C0.152954 12.9454 0.0696296 14.3566 0.0323996 15.7536C0.0146711 16.3953 0.00757969 17.0371 0.00403399 17.6789C0.000488281 18.4394 0.000488281 19.2018 0.000488281 19.9641V43.8568C0.000488281 44.6192 0.000488281 45.3815 0.00403399 46.1438C0.00757969 46.7856 0.0146711 47.4274 0.0323996 48.0691C0.0696296 49.4679 0.152954 50.8773 0.401153 52.2602C0.652898 53.6643 1.06597 54.9709 1.71484 56.2473C2.35306 57.5007 3.18631 58.646 4.18088 59.6406C5.17545 60.6351 6.32248 61.4684 7.57589 62.1066C8.85057 62.7555 10.1572 63.1668 11.5595 63.4203C12.9423 63.6685 14.3535 63.7518 15.7523 63.789C16.3941 63.8068 17.0358 63.8139 17.6776 63.8174C18.4399 63.8227 19.2023 63.8209 19.9646 63.8209H43.8573C44.6197 63.8209 45.382 63.8209 46.1443 63.8174C46.7861 63.8139 47.4279 63.8068 48.0696 63.789C49.4684 63.7518 50.8796 63.6685 52.2624 63.4203C53.6665 63.1685 54.9714 62.7555 56.246 62.1066C57.4994 61.4684 58.6465 60.6351 59.641 59.6406C60.6356 58.646 61.4689 57.5007 62.1071 56.2473C62.756 54.9709 63.169 53.6643 63.4208 52.2602C63.669 50.8773 63.7523 49.4662 63.7895 48.0691C63.8073 47.4274 63.8143 46.7856 63.8179 46.1438C63.8232 45.3815 63.8214 44.6192 63.8214 43.8568V19.9641H63.8232Z" fill="url(#paint0_linear_305_1043)"/>
<path fill-rule="evenodd" clip-rule="evenodd" d="M45.1196 9.75072C44.9653 9.7649 43.5949 10.0078 43.43 10.0415L24.4605 13.8691L24.4534 13.8708C23.9588 13.9754 23.5705 14.1509 23.2709 14.4027C22.9093 14.7058 22.7089 15.1349 22.6327 15.6348C22.6167 15.7412 22.5902 15.9575 22.5902 16.2766C22.5902 16.2766 22.5902 35.6574 22.5902 40.0186C22.5902 40.5735 22.5458 41.1125 22.17 41.5717C21.7941 42.0308 21.3297 42.1691 20.7854 42.279C20.3723 42.3624 19.9592 42.4457 19.5462 42.529C17.979 42.8446 16.9596 43.0591 16.0359 43.4172C15.153 43.7594 14.4918 44.1955 13.9652 44.7486C12.921 45.8425 12.4973 47.3263 12.6427 48.7163C12.7668 49.9023 13.3004 51.0369 14.217 51.8755C14.8357 52.4428 15.6087 52.8736 16.5199 53.0562C17.4648 53.2459 18.4718 53.1803 19.9433 52.8825C20.7269 52.7247 21.4608 52.4782 22.1594 52.0652C22.8508 51.6574 23.4429 51.1132 23.9056 50.4501C24.3701 49.7853 24.6697 49.046 24.8346 48.2606C25.0048 47.4504 25.0456 46.7182 25.0456 45.9098V25.3181C25.0456 24.2154 25.3576 23.9247 26.2476 23.7084C26.2476 23.7084 42.0153 20.5279 42.751 20.3843C43.7775 20.1875 44.2615 20.48 44.2615 21.5561V35.6131C44.2615 36.1698 44.2562 36.7335 43.8768 37.1945C43.501 37.6537 43.0365 37.7919 42.4922 37.9018C42.0791 37.9852 41.6661 38.0685 41.253 38.1518C39.6858 38.4674 38.6664 38.6819 37.7427 39.04C36.8598 39.3822 36.1986 39.8183 35.672 40.3714C34.6278 41.4653 34.1669 42.9492 34.3123 44.3391C34.4364 45.5251 35.0072 46.6597 35.9238 47.4983C36.5425 48.0656 37.3155 48.484 38.2267 48.6684C39.1716 48.8581 40.1786 48.7907 41.6501 48.4946C42.4337 48.3369 43.1677 48.1011 43.8662 47.688C44.5576 47.2802 45.1497 46.736 45.6124 46.0729C46.0769 45.4081 46.3765 44.6688 46.5414 43.8835C46.7116 43.0733 46.7187 42.3411 46.7187 41.5327V11.4278C46.7222 10.3358 46.1461 9.66208 45.1196 9.75072Z" fill="white"/>
</g>
<g filter="url(#filter0_b_305_1043)">
<path d="M277.456 41.1538C275.503 41.1538 273.829 40.7179 272.434 39.8461C271.039 38.9743 269.97 37.7887 269.226 36.2892C268.482 34.7897 268.11 33.0985 268.11 31.2154C268.11 29.3091 268.494 27.6061 269.261 26.1067C270.04 24.6072 271.132 23.4273 272.539 22.5672C273.945 21.707 275.608 21.2769 277.526 21.2769C279.746 21.2769 281.606 21.8407 283.105 22.9682C284.616 24.0841 285.581 25.6126 285.999 27.5538L281.257 28.8092C280.978 27.8328 280.49 27.0714 279.792 26.5251C279.106 25.9788 278.328 25.7056 277.456 25.7056C276.456 25.7056 275.637 25.9497 274.997 26.4379C274.358 26.9145 273.887 27.5713 273.585 28.4082C273.283 29.2335 273.132 30.1692 273.132 31.2154C273.132 32.8544 273.492 34.1853 274.213 35.2082C274.945 36.2195 276.026 36.7251 277.456 36.7251C278.525 36.7251 279.339 36.481 279.897 35.9928C280.455 35.5046 280.873 34.8072 281.152 33.9005L285.999 34.9118C285.465 36.9111 284.453 38.4513 282.966 39.5323C281.478 40.6133 279.641 41.1538 277.456 41.1538Z" fill="white"/>
<path d="M259.186 19.1846V15H263.929V19.1846H259.186ZM259.186 40.6308V21.8H263.929V40.6308H259.186Z" fill="white"/>
<path d="M247.124 41.1538C244.752 41.1538 242.834 40.6191 241.37 39.5497C239.917 38.4687 239.033 36.946 238.72 34.9815L243.567 34.2492C243.764 35.1326 244.2 35.8243 244.874 36.3241C245.56 36.8239 246.426 37.0738 247.472 37.0738C248.333 37.0738 248.995 36.9111 249.46 36.5856C249.925 36.2485 250.157 35.7836 250.157 35.1908C250.157 34.8188 250.064 34.5224 249.879 34.3015C249.693 34.0691 249.274 33.8424 248.623 33.6215C247.984 33.4007 246.984 33.1101 245.624 32.7497C244.09 32.3545 242.863 31.9128 241.945 31.4246C241.027 30.9364 240.364 30.3552 239.957 29.681C239.551 28.9952 239.347 28.1699 239.347 27.2051C239.347 25.9962 239.655 24.9501 240.271 24.0667C240.887 23.1716 241.753 22.4858 242.869 22.0092C243.997 21.521 245.322 21.2769 246.845 21.2769C248.321 21.2769 249.629 21.5036 250.768 21.9569C251.907 22.4102 252.825 23.0554 253.523 23.8923C254.232 24.7292 254.668 25.7173 254.83 26.8564L249.983 27.7282C249.902 27.0308 249.6 26.4786 249.076 26.0718C248.553 25.6649 247.844 25.4267 246.949 25.3569C246.077 25.2988 245.374 25.415 244.84 25.7056C244.316 25.9962 244.055 26.4147 244.055 26.961C244.055 27.2865 244.165 27.5596 244.386 27.7805C244.619 28.0014 245.089 28.228 245.799 28.4605C246.519 28.693 247.612 28.9952 249.076 29.3672C250.506 29.7391 251.651 30.175 252.511 30.6749C253.383 31.1631 254.017 31.7559 254.412 32.4533C254.807 33.1391 255.005 33.9703 255.005 34.9467C255.005 36.8762 254.307 38.3932 252.912 39.4974C251.517 40.6017 249.588 41.1538 247.124 41.1538Z" fill="white"/>
<path d="M224.604 41.1888C223.128 41.1888 221.925 40.9389 220.995 40.439C220.065 39.9392 219.339 39.3057 218.816 38.5385C218.304 37.7713 217.938 36.9751 217.717 36.1498C217.496 35.3129 217.363 34.5515 217.316 33.8657C217.27 33.1799 217.246 32.68 217.246 32.3662V21.8H222.059V30.6924C222.059 31.1224 222.082 31.6746 222.128 32.3488C222.175 33.0113 222.32 33.6797 222.564 34.3539C222.808 35.0281 223.204 35.5918 223.75 36.0452C224.308 36.4985 225.092 36.7252 226.104 36.7252C226.511 36.7252 226.946 36.6612 227.411 36.5334C227.876 36.4055 228.312 36.1614 228.719 35.8011C229.126 35.4291 229.457 34.8886 229.713 34.1795C229.98 33.4589 230.114 32.5173 230.114 31.3549L232.834 32.6452C232.834 34.133 232.532 35.5279 231.927 36.8298C231.323 38.1317 230.41 39.1836 229.19 39.9857C227.981 40.7877 226.452 41.1888 224.604 41.1888ZM230.707 40.6308V34.3888H230.114V21.8H234.891V40.6308H230.707Z" fill="white"/>
<path d="M187.591 40.6308V15.5231H191.846L200.146 32.1918L208.446 15.5231H212.701V40.6308H208.272V25.6359L200.983 40.6308H199.309L192.02 25.6359V40.6308H187.591Z" fill="white"/>
<path d="M168.146 41.1538C166.216 41.1538 164.513 40.7412 163.037 39.9159C161.572 39.079 160.422 37.934 159.585 36.481C158.759 35.0164 158.347 33.3426 158.347 31.4595C158.347 29.402 158.753 27.612 159.567 26.0892C160.381 24.5665 161.503 23.3867 162.932 22.5497C164.362 21.7012 166.007 21.2769 167.867 21.2769C169.843 21.2769 171.523 21.7419 172.906 22.6718C174.29 23.6017 175.313 24.9094 175.975 26.5949C176.638 28.2803 176.87 30.2622 176.673 32.5405H171.982V30.7969C171.982 28.879 171.674 27.5015 171.058 26.6646C170.454 25.8161 169.46 25.3918 168.076 25.3918C166.46 25.3918 165.269 25.8858 164.502 26.8738C163.746 27.8502 163.368 29.2974 163.368 31.2154C163.368 32.9706 163.746 34.3306 164.502 35.2954C165.269 36.2485 166.391 36.7251 167.867 36.7251C168.797 36.7251 169.593 36.5217 170.256 36.1149C170.919 35.708 171.424 35.121 171.773 34.3538L176.516 35.7138C175.807 37.4342 174.685 38.7709 173.15 39.7241C171.628 40.6773 169.959 41.1538 168.146 41.1538ZM161.904 32.5405V29.0185H174.388V32.5405H161.904Z" fill="white"/>
<path d="M149.422 40.6308V15H154.165V40.6308H149.422Z" fill="white"/>
<path d="M136.553 41.1538C134.682 41.1538 133.118 40.7179 131.863 39.8461C130.607 38.9743 129.66 37.7887 129.02 36.2892C128.393 34.7897 128.079 33.0985 128.079 31.2154C128.079 29.3323 128.393 27.641 129.02 26.1415C129.648 24.642 130.572 23.4564 131.793 22.5846C133.014 21.7128 134.519 21.2769 136.309 21.2769C138.111 21.2769 139.68 21.707 141.017 22.5672C142.354 23.4273 143.388 24.6072 144.121 26.1067C144.865 27.5945 145.237 29.2974 145.237 31.2154C145.237 33.0985 144.871 34.7897 144.138 36.2892C143.418 37.7887 142.406 38.9743 141.104 39.8461C139.802 40.7179 138.285 41.1538 136.553 41.1538ZM127.277 49V21.8H131.462V34.7026H132.055V49H127.277ZM135.786 36.9344C136.809 36.9344 137.646 36.6786 138.297 36.1672C138.948 35.6557 139.43 34.9699 139.744 34.1097C140.058 33.2379 140.215 32.2732 140.215 31.2154C140.215 30.1692 140.052 29.2161 139.727 28.3559C139.401 27.4841 138.896 26.7925 138.21 26.281C137.535 25.7579 136.669 25.4964 135.612 25.4964C134.624 25.4964 133.821 25.7347 133.205 26.2113C132.601 26.6879 132.159 27.3562 131.88 28.2164C131.601 29.0766 131.462 30.0762 131.462 31.2154C131.462 32.3545 131.601 33.3542 131.88 34.2144C132.159 35.0745 132.612 35.7429 133.24 36.2195C133.88 36.6961 134.728 36.9344 135.786 36.9344Z" fill="white"/>
<path d="M114.791 41.1538C112.92 41.1538 111.356 40.7179 110.101 39.8461C108.845 38.9743 107.898 37.7887 107.258 36.2892C106.631 34.7897 106.317 33.0985 106.317 31.2154C106.317 29.3323 106.631 27.641 107.258 26.1415C107.886 24.642 108.81 23.4564 110.031 22.5846C111.251 21.7128 112.757 21.2769 114.547 21.2769C116.349 21.2769 117.918 21.707 119.255 22.5672C120.592 23.4273 121.626 24.6072 122.359 26.1067C123.103 27.5945 123.475 29.2974 123.475 31.2154C123.475 33.0985 123.109 34.7897 122.376 36.2892C121.655 37.7887 120.644 38.9743 119.342 39.8461C118.04 40.7179 116.523 41.1538 114.791 41.1538ZM105.515 49V21.8H109.7V34.7026H110.292V49H105.515ZM114.024 36.9344C115.047 36.9344 115.884 36.6786 116.535 36.1672C117.186 35.6557 117.668 34.9699 117.982 34.1097C118.296 33.2379 118.453 32.2732 118.453 31.2154C118.453 30.1692 118.29 29.2161 117.965 28.3559C117.639 27.4841 117.133 26.7925 116.448 26.281C115.773 25.7579 114.907 25.4964 113.85 25.4964C112.861 25.4964 112.059 25.7347 111.443 26.2113C110.839 26.6879 110.397 27.3562 110.118 28.2164C109.839 29.0766 109.7 30.0762 109.7 31.2154C109.7 32.3545 109.839 33.3542 110.118 34.2144C110.397 35.0745 110.85 35.7429 111.478 36.2195C112.117 36.6961 112.966 36.9344 114.024 36.9344Z" fill="white"/>
<path d="M80.0005 40.6308L87.6727 15.5231H94.7521L102.424 40.6308H97.542L90.7067 18.4872H91.6134L84.8828 40.6308H80.0005ZM84.6038 35.4V30.9713H97.8558V35.4H84.6038Z" fill="white"/>
</g>
<defs>
<filter id="filter0_b_305_1043" x="76.0005" y="11" width="213.999" height="42" filterUnits="userSpaceOnUse" color-interpolation-filters="sRGB">
<feFlood flood-opacity="0" result="BackgroundImageFix"/>
<feGaussianBlur in="BackgroundImageFix" stdDeviation="2"/>
<feComposite in2="SourceAlpha" operator="in" result="effect1_backgroundBlur_305_1043"/>
<feBlend mode="normal" in="SourceGraphic" in2="effect1_backgroundBlur_305_1043" result="shape"/>
</filter>
<linearGradient id="paint0_linear_305_1043" x1="31.9118" y1="63.5753" x2="31.9118" y2="1.37548" gradientUnits="userSpaceOnUse">
<stop stop-color="#FA233B"/>
<stop offset="1" stop-color="#FB5C74"/>
</linearGradient>
<clipPath id="clip0_305_1043">
<rect width="64" height="64" fill="white" transform="translate(0.000488281)"/>
</clipPath>
</defs>
</svg>
