<svg width="376" height="52" viewBox="0 0 376 52" fill="none" xmlns="http://www.w3.org/2000/svg">
<mask id="mask0_305_1007" style="mask-type:alpha" maskUnits="userSpaceOnUse" x="158" y="1" width="48" height="49">
<path d="M182.001 49.4039C195.085 49.4039 205.692 38.7767 205.692 25.6674C205.692 12.558 195.085 1.93079 182.001 1.93079C168.917 1.93079 158.31 12.558 158.31 25.6674C158.31 38.7767 168.917 49.4039 182.001 49.4039Z" fill="#C4C4C4"/>
</mask>
<g mask="url(#mask0_305_1007)">
<path d="M167.823 6.55765C171.336 3.94879 175.489 2.37173 179.818 1.97986V9.1564C177.02 9.51986 174.348 10.5932 172.062 12.2903C169.2 14.4152 167.095 17.4055 166.058 20.8201C165.021 24.2347 165.107 27.8928 166.302 31.2549C167.498 34.617 169.741 37.5049 172.7 39.493C175.658 41.4809 179.176 42.4637 182.734 42.2961C186.292 42.1286 189.703 40.8197 192.462 38.5625C195.222 36.3053 197.185 33.2193 198.061 29.7597C198.671 27.3465 198.731 24.8407 198.252 22.4249L204.268 17.5802L204.263 17.5411C205.887 22.016 206.135 26.8843 204.963 31.514C203.711 36.4563 200.908 40.8649 196.966 44.0894C193.024 47.3139 188.152 49.1838 183.068 49.4232C177.985 49.6625 172.959 48.2586 168.733 45.4186C164.507 42.5787 161.303 38.4529 159.595 33.65C157.887 28.847 157.764 23.6211 159.245 18.7431C160.727 13.8651 163.734 9.59326 167.823 6.55765Z" fill="#FCCA00"/>
<path d="M199.732 9.90681L199.757 9.97005L195.738 16.3663C194.276 14.196 192.317 12.3896 190.025 11.1109V25.6668C190.025 30.1327 186.412 33.7531 181.955 33.7531C177.497 33.7531 173.884 30.1327 173.884 25.6668C173.884 21.2009 177.497 17.5806 181.955 17.5806C183.625 17.5806 185.177 18.0891 186.464 18.96V2.31256C191.704 3.32234 196.331 6.05833 199.732 9.90681Z" fill="#FC3F1D"/>
</g>
<mask id="mask1_305_1007" style="mask-type:luminance" maskUnits="userSpaceOnUse" x="0" y="1" width="149" height="49">
<path d="M148.437 1.88416H0.0789795V49.4502H148.437V1.88416Z" fill="white"/>
</mask>
<g mask="url(#mask1_305_1007)">
<path d="M20.2912 43.5798H26.5143V7.7666H17.4626C8.35932 7.7666 3.57629 12.4559 3.57629 19.3609C3.57629 24.8745 6.19923 28.1209 10.8794 31.4704L2.7534 43.5798H9.49085L18.5426 30.0275L15.4053 27.9148C11.5995 25.3383 9.74796 23.3286 9.74796 19.0002C9.74796 15.1869 12.4224 12.6104 17.514 12.6104H20.2912V43.5798ZM102.015 41.8279V36.8295C100.112 38.1177 96.9227 39.2514 93.9397 39.2514C89.4653 39.2514 87.768 37.1387 87.5113 32.8101H102.271V29.5637C102.271 20.5461 98.3115 17.1451 92.191 17.1451C84.7337 17.1451 81.185 22.8649 81.185 30.6974C81.185 39.7151 85.608 44.0952 93.4259 44.0952C97.3345 44.0952 100.214 43.0646 102.015 41.8279ZM140.279 44.0952C143.107 44.0952 145.113 43.5798 146.605 42.4978V37.4994C145.062 38.5814 143.211 39.2514 140.639 39.2514C136.267 39.2514 134.467 35.8504 134.467 30.4913C134.467 24.8745 136.679 21.9888 140.69 21.9888C143.056 21.9888 145.371 22.8133 146.605 23.5863V18.3818C145.319 17.6604 143.056 17.1451 140.022 17.1451C132.204 17.1451 128.141 22.7618 128.141 30.6459C128.141 39.3029 132.101 44.0952 140.279 44.0952ZM45.9551 17.6603V27.9148H37.7777V17.6603H31.6574V43.5798H37.7777V32.7586H45.9551V43.5798H52.0754V17.6603H45.9551ZM79.6935 38.7361H76.9678V17.6603H59.1214V19.8761C59.1214 26.2143 58.71 34.4076 56.5499 38.7361H54.6469V49.5058H60.3044V43.5798H74.0362V49.5058H79.6935V38.7361ZM121.558 43.5798H128.501L118.678 29.6153L127.318 17.6603H121.147L112.506 29.6153V17.6603H106.386V43.5798H112.506V30.852L121.558 43.5798ZM92.0884 21.9888C95.1226 21.9888 96.0483 24.5138 96.0483 27.7602V28.2755H87.5113C87.6653 24.1531 89.1568 21.9888 92.0884 21.9888ZM70.8474 38.7361H62.2071C63.9045 34.8198 64.367 27.7602 64.367 23.2771V22.5042H70.8474V38.7361Z" fill="white"/>
</g>
<path d="M230.944 43.5052H236.087L243.39 16.452V43.5052H249.253V7.69189H241.179L233.927 34.0752L226.778 7.69189H218.549V43.5052H223.641V16.452L230.944 43.5052Z" fill="white"/>
<path d="M257.701 51.4923C263.411 51.4923 265.519 47.4214 267.268 42.1139L275.342 17.5856H269.428L263.719 37.0639L258.01 17.5856H251.582L260.479 44.6388C259.81 45.8755 258.833 46.6485 257.136 46.6485C256.005 46.6485 255.027 46.2878 254.359 45.6179V50.6163C254.359 50.6163 255.284 51.4923 257.701 51.4923Z" fill="white"/>
<path d="M284.254 39.1767C281.116 39.1767 278.031 38.043 276.384 36.8063V41.8047C277.567 42.7838 280.55 44.0205 284.973 44.0205C291.505 44.0205 294.951 41.0833 294.951 35.8788C294.951 32.8385 293.048 30.7773 289.654 30.0559C292.843 29.0253 294.179 26.758 294.179 23.8723C294.179 19.4923 290.734 17.0704 285.179 17.0704C281.167 17.0704 278.545 18.3071 277.054 19.2346V24.233C278.699 23.1509 280.962 21.9142 284.305 21.9142C286.568 21.9142 288.008 22.9963 288.008 24.9029C288.008 26.9126 286.773 27.9947 284.254 27.9947H280.396V32.6324H284.254C287.391 32.6324 288.625 33.5599 288.625 35.8273C288.625 37.8884 287.134 39.1767 284.254 39.1767Z" fill="white"/>
<path d="M299.06 17.5856V43.5052H308.37C314.387 43.5052 318.655 40.4134 318.655 34.3329C318.655 28.5615 314.849 25.5213 308.472 25.5213H305.181V17.5856H299.06ZM320.918 17.5856V43.5052H327.039V17.5856H320.918ZM308.009 38.6614H305.181V30.3651H308.164C310.787 30.3651 312.329 31.5503 312.329 34.5389C312.329 37.5277 310.632 38.6614 308.009 38.6614Z" fill="white"/>
<path d="M347.331 43.5052H354.274L344.451 29.5406L353.091 17.5856H346.919L338.279 29.5406V17.5856H332.159V43.5052H338.279V30.7773L347.331 43.5052Z" fill="white"/>
<path d="M375.102 25.8304C375.102 19.5438 371.914 17.1734 365.434 17.1734C361.371 17.1734 358.182 18.4617 356.33 19.5438V24.6453C357.976 23.4085 361.577 22.0688 364.713 22.0688C367.645 22.0688 368.983 23.0994 368.983 25.882V27.3248H368.005C358.645 27.3248 354.479 30.4166 354.479 35.6726C354.479 40.9287 357.667 43.8659 362.399 43.8659C365.999 43.8659 367.542 42.6807 368.725 41.444H368.983C369.034 42.1139 369.239 42.9899 369.445 43.5052H375.411C375.206 41.3924 375.102 39.2797 375.102 37.167V25.8304ZM368.983 37.3216C368.211 38.4553 366.771 39.3828 364.611 39.3828C362.039 39.3828 360.753 37.8369 360.753 35.518C360.753 32.4778 362.862 31.3956 368.108 31.3956H368.983V37.3216Z" fill="white"/>
</svg>
